# xmcd
#
# Track frame offsets: 
#        150
#        43745
#        97660
#        125342
#        151196
#        197497
#        225764
#        275563
#
# Disc length: 3992 seconds
#
# Revision: 0
# Processed by: cddbd v1.4PL0 Copyright (c) Steve Scherf et al.
# Submitted via: ExactAudioCopy v0.90b4
#
DISCID=550f9608
DTITLE=Van Morrison - My Happy Heart, disc 2
DYEAR=1999
DGENRE=Celtic
TTITLE0=Philosophers Stone > Oh Didn't He Ramble
TTITLE1=And The Healing Has Begun
TTITLE2=When Will I Ever Learn To Live In God
TTITLE3=Just Like A Woman
TTITLE4=Help Me > Be Bop A Lula > Good Morning Little Schoolgirl
TTITLE5=Georgia On My Mind
TTITLE6=I'm Not Feeling It Anymore
TTITLE7=Gloria
EXTD=
EXTT0=
EXTT1=
EXTT2=
EXTT3=
EXTT4=
EXTT5=
EXTT6=
EXTT7=
PLAYORDER=
